<?xml version="1.0" encoding="utf-8"?>
<!-- Generator: Adobe Illustrator 16.0.0, SVG Export Plug-In . SVG Version: 6.00 Build 0)  -->
<!DOCTYPE svg PUBLIC "-//W3C//DTD SVG 1.1//EN" "http://www.w3.org/Graphics/SVG/1.1/DTD/svg11.dtd">
<svg version="1.1" id="Layer_1" xmlns="http://www.w3.org/2000/svg" xmlns:xlink="http://www.w3.org/1999/xlink" x="0px" y="0px"
	 width="433.137px" height="75px" viewBox="0 0 433.137 75" enable-background="new 0 0 433.137 75" xml:space="preserve">
<g>
	<g>
		<path fill="#EFECEF" d="M124.944,33.536c3.572,0,5.396-2.366,5.884-4.32l-2.312-0.699c-0.342,1.183-1.4,2.598-3.572,2.598
			c-2.041,0-3.941-1.487-3.941-4.194c0-2.887,2.006-4.25,3.91-4.25c2.203,0,3.188,1.346,3.491,2.564l2.335-0.735
			c-0.504-2.061-2.318-4.213-5.826-4.213c-3.41,0-6.475,2.582-6.475,6.633C118.438,30.973,121.398,33.536,124.944,33.536z"/>
		<path fill="#EFECEF" d="M140.325,33.536c3.461,0,6.545-2.527,6.545-6.615c0-4.105-3.084-6.633-6.545-6.633
			c-3.443,0-6.524,2.528-6.524,6.633C133.801,31.009,136.882,33.536,140.325,33.536z M140.325,22.672c1.972,0,3.98,1.363,3.98,4.231
			s-2.009,4.231-3.98,4.231c-1.954,0-3.963-1.363-3.963-4.231S138.371,22.672,140.325,22.672z"/>
		<polygon fill="#EFECEF" points="153.283,24.251 159.056,33.268 161.655,33.268 161.655,20.558 159.18,20.558 159.18,28.965 
			153.892,20.558 150.81,20.558 150.81,33.268 153.283,33.268 		"/>
		<path fill="#EFECEF" d="M171.938,33.536c1.922,0,3.174-0.86,3.748-1.72l0.16,1.452h2.009v-6.614h-6.347v2.151h4.019
			c-0.146,0.896-1.06,2.473-3.409,2.473c-2.131,0-4.012-1.488-4.012-4.356c0-3.011,2.076-4.32,3.996-4.32
			c2.061,0,3.119,1.309,3.443,2.438l2.364-0.843c-0.628-1.954-2.473-3.908-5.808-3.908c-3.441,0-6.506,2.528-6.506,6.633
			C165.597,31.027,168.521,33.536,171.938,33.536z"/>
		<path fill="#EFECEF" d="M184.629,28.373h1.292l2.494,4.895h2.758l-2.727-5.2c1.668-0.483,2.707-1.827,2.707-3.602
			c0-2.206-1.574-3.908-4.05-3.908h-4.969v12.71h2.494V28.373z M184.629,22.709h2.009c1.257,0,1.99,0.699,1.99,1.776
			c0,1.039-0.733,1.756-1.99,1.756h-2.009V22.709z"/>
		<polygon fill="#EFECEF" points="203.091,30.937 197.608,30.937 197.608,27.998 202.571,27.998 202.571,25.792 197.608,25.792 
			197.608,22.888 203.091,22.888 203.091,20.558 195.13,20.558 195.13,33.268 203.091,33.268 		"/>
		<path fill="#EFECEF" d="M211.513,31.332c-1.791,0-2.668-1.13-2.773-2.385l-2.297,0.61c0.195,1.811,1.681,3.98,5.052,3.98
			c2.96,0,4.593-1.972,4.593-3.925c0-1.792-1.238-3.299-3.553-3.748l-1.773-0.34c-0.934-0.179-1.377-0.735-1.377-1.436
			c0-0.843,0.783-1.613,1.986-1.613c1.613,0,2.188,1.094,2.314,1.793l2.221-0.682c-0.284-1.434-1.471-3.298-4.551-3.298
			c-2.405,0-4.431,1.721-4.431,3.98c0,1.919,1.308,3.227,3.337,3.64l1.772,0.358c0.989,0.197,1.544,0.771,1.544,1.505
			C213.577,30.669,212.843,31.332,211.513,31.332z"/>
		<path fill="#EFECEF" d="M225.712,33.536c3.46,0,6.54-2.527,6.54-6.615c0-4.105-3.08-6.633-6.54-6.633
			c-3.444,0-6.525,2.528-6.525,6.633C219.187,31.009,222.268,33.536,225.712,33.536z M225.712,22.672
			c1.971,0,3.977,1.363,3.977,4.231s-2.006,4.231-3.977,4.231c-1.955,0-3.961-1.363-3.961-4.231S223.757,22.672,225.712,22.672z"/>
		<polygon fill="#EFECEF" points="244.888,24.251 250.659,33.268 253.259,33.268 253.259,20.558 250.784,20.558 250.784,28.965 
			245.497,20.558 242.413,20.558 242.413,33.268 244.888,33.268 		"/>
		<path fill="#EFECEF" d="M260.355,30.363h5.159l1.059,2.905h2.688l-4.837-12.71h-2.871l-4.873,12.71h2.615L260.355,30.363z
			 M262.936,23.302l1.76,4.804h-3.517L262.936,23.302z"/>
		<path fill="#EFECEF" d="M277.831,33.536c3.566,0,5.396-2.366,5.878-4.32l-2.312-0.699c-0.342,1.183-1.396,2.598-3.566,2.598
			c-2.045,0-3.948-1.487-3.948-4.194c0-2.887,2.013-4.25,3.91-4.25c2.208,0,3.189,1.346,3.495,2.564l2.331-0.735
			c-0.504-2.061-2.312-4.213-5.826-4.213c-3.409,0-6.472,2.582-6.472,6.633C271.321,30.973,274.278,33.536,277.831,33.536z"/>
		<rect x="287.562" y="20.558" fill="#EFECEF" width="2.507" height="12.71"/>
		<path fill="#EFECEF" d="M307.079,26.922c0-4.105-3.082-6.633-6.541-6.633c-3.445,0-6.527,2.528-6.527,6.633
			c0,4.087,3.082,6.615,6.527,6.615C303.997,33.536,307.079,31.009,307.079,26.922z M300.538,31.134
			c-1.955,0-3.965-1.363-3.965-4.231s2.01-4.231,3.965-4.231c1.967,0,3.979,1.363,3.979,4.231S302.505,31.134,300.538,31.134z"/>
		<polygon fill="#EFECEF" points="313.495,24.251 319.268,33.268 321.866,33.268 321.866,20.558 319.39,20.558 319.39,28.965 
			314.104,20.558 311.021,20.558 311.021,33.268 313.495,33.268 		"/>
		<path fill="#EFECEF" d="M328.966,30.363h5.16l1.055,2.905h2.691l-4.84-12.71h-2.867l-4.88,12.71h2.619L328.966,30.363z
			 M331.546,23.302l1.754,4.804h-3.516L331.546,23.302z"/>
		<polygon fill="#EFECEF" points="343.77,30.902 343.77,20.558 341.296,20.558 341.296,33.268 349.435,33.268 349.435,30.902 		"/>
		<path fill="#EFECEF" d="M123.745,44.216h-4.555v12.71h4.536c3.619,0,6.295-2.331,6.295-6.346
			C130.021,46.564,127.368,44.216,123.745,44.216z M123.638,54.632h-1.971v-8.121h1.988c2.084,0,3.803,1.308,3.803,4.069
			C127.458,53.341,125.72,54.632,123.638,54.632z"/>
		<polygon fill="#EFECEF" points="141.921,46.547 141.921,44.216 133.96,44.216 133.96,56.927 141.921,56.927 141.921,54.596 
			136.436,54.596 136.436,51.655 141.403,51.655 141.403,49.451 136.436,49.451 136.436,46.547 		"/>
		<path fill="#EFECEF" d="M161.725,52.174c-0.337,1.184-1.396,2.601-3.565,2.601c-2.044,0-3.944-1.488-3.944-4.195
			c0-2.886,2.009-4.248,3.907-4.248c2.206,0,3.191,1.344,3.494,2.562l2.332-0.734c-0.501-2.061-2.312-4.213-5.826-4.213
			c-3.407,0-6.471,2.581-6.471,6.633c0,4.052,2.956,6.613,6.508,6.613c3.565,0,5.396-2.364,5.881-4.32L161.725,52.174z"/>
		<rect x="167.89" y="44.216" fill="#EFECEF" width="2.513" height="12.71"/>
		<path fill="#EFECEF" d="M174.341,50.58c0,4.052,2.957,6.613,6.506,6.613c3.572,0,5.396-2.364,5.881-4.32l-2.309-0.699
			c-0.345,1.184-1.4,2.601-3.572,2.601c-2.041,0-3.941-1.488-3.941-4.195c0-2.886,2.009-4.248,3.91-4.248
			c2.203,0,3.189,1.344,3.495,2.562l2.331-0.734c-0.508-2.061-2.315-4.213-5.826-4.213C177.409,43.947,174.341,46.528,174.341,50.58
			z"/>
		<polygon fill="#EFECEF" points="190.58,44.216 190.58,56.927 198.719,56.927 198.719,54.56 193.052,54.56 193.052,44.216 		"/>
		<rect x="202.408" y="44.216" fill="#EFECEF" width="2.511" height="12.71"/>
		<path fill="#EFECEF" d="M218.348,53.268c0-1.793-1.24-3.297-3.552-3.746l-1.773-0.341c-0.935-0.179-1.385-0.735-1.385-1.433
			c0-0.844,0.788-1.613,1.993-1.613c1.614,0,2.185,1.092,2.312,1.792l2.225-0.681c-0.289-1.434-1.475-3.298-4.559-3.298
			c-2.398,0-4.424,1.721-4.424,3.98c0,1.918,1.309,3.227,3.337,3.638l1.771,0.36c0.984,0.197,1.543,0.771,1.543,1.505
			c0,0.897-0.736,1.56-2.063,1.56c-1.792,0-2.673-1.129-2.778-2.384l-2.292,0.61c0.194,1.811,1.684,3.978,5.054,3.978
			C216.712,57.193,218.348,55.223,218.348,53.268z"/>
		<polygon fill="#EFECEF" points="225.491,44.216 222.229,44.216 222.229,56.927 224.599,56.927 224.599,48.088 228.257,56.927 
			230.313,56.927 233.972,48.016 233.972,56.927 236.411,56.927 236.411,44.216 233.04,44.216 229.312,53.394 		"/>
		<path fill="#EFECEF" d="M253.418,50.58c0-4.105-3.083-6.633-6.54-6.633c-3.444,0-6.525,2.528-6.525,6.633
			c0,4.088,3.081,6.613,6.525,6.613C250.335,57.193,253.418,54.668,253.418,50.58z M242.917,50.562c0-2.869,2.006-4.23,3.961-4.23
			c1.968,0,3.98,1.362,3.98,4.23c0,2.867-2.013,4.23-3.98,4.23C244.923,54.793,242.917,53.43,242.917,50.562z"/>
		<path fill="#EFECEF" d="M273.223,44.216h-2.472v8.031c0,1.668-0.916,2.546-2.424,2.546c-1.471,0-2.4-0.878-2.4-2.546v-8.031
			h-2.473v8.21c0,3.119,2.169,4.786,4.873,4.786c2.727,0,4.896-1.667,4.896-4.786V44.216z"/>
		<path fill="#EFECEF" d="M286.81,48.124c0-2.204-1.58-3.907-4.054-3.907h-4.966v12.71h2.497v-4.894h1.285l2.493,4.894h2.76
			l-2.721-5.198C285.769,51.243,286.81,49.899,286.81,48.124z M282.292,49.899h-2.005v-3.532h2.005c1.25,0,1.988,0.699,1.988,1.777
			C284.28,49.181,283.542,49.899,282.292,49.899z"/>
		<path fill="#EFECEF" d="M297.384,50.365c1.055-0.359,1.844-1.416,1.844-2.724c0-1.972-1.396-3.424-3.869-3.424h-4.572v12.71h4.914
			c2.383,0,3.922-1.488,3.922-3.551C299.622,51.798,298.618,50.67,297.384,50.365z M293.226,46.295h1.738
			c1.199,0,1.826,0.609,1.826,1.578c0,0.968-0.682,1.595-1.811,1.595h-1.754V46.295z M295.231,54.864h-2.006v-3.353h2.041
			c1.236,0,1.885,0.699,1.885,1.705C297.151,54.237,296.43,54.864,295.231,54.864z"/>
		<path fill="#EFECEF" d="M309.678,44.216h-2.867l-4.876,12.71h2.619l1.055-2.904h5.163l1.059,2.904h2.688L309.678,44.216z
			 M306.435,51.764l1.754-4.805l1.757,4.805H306.435z"/>
		<polygon fill="#EFECEF" points="328.786,56.927 328.786,44.216 326.312,44.216 326.312,52.623 321.024,44.216 317.938,44.216 
			317.938,56.927 320.412,56.927 320.412,47.91 326.185,56.927 		"/>
		<path fill="#EFECEF" d="M339.247,43.947c-3.438,0-6.524,2.528-6.524,6.633c0,4.088,3.087,6.613,6.524,6.613
			c3.464,0,6.545-2.526,6.545-6.613C345.792,46.475,342.711,43.947,339.247,43.947z M339.247,54.793
			c-1.951,0-3.957-1.363-3.957-4.23c0-2.869,2.006-4.23,3.957-4.23c1.975,0,3.984,1.362,3.984,4.23
			C343.231,53.43,341.222,54.793,339.247,54.793z"/>
	</g>
	<g>
		<g>
			<polygon fill="#EFECEF" points="34.463,13.435 33.194,18.706 40.12,20.068 36.634,49.228 43.536,48.841 47.153,14.438 			"/>
			<polygon fill="#EFECEF" points="14.933,13.76 14.193,19.593 20.957,19.335 21.206,52.261 28.215,50.661 27.149,12.802 			"/>
			<polygon fill="#EFECEF" points="72.29,20.965 66.657,19.819 61.14,37.682 58.355,19.861 51.308,18.489 57.239,45.736 
				63.3,45.382 			"/>
			<path fill="#EFECEF" d="M82.476,45.783c6.346,0.412,8.588-3.45,8.947-7.891c0,0,0.645-5.783,0.746-8.405
				c0.195-5.162-2.033-9.487-7.583-9.803c-5.124-0.295-8.391,2.799-9.31,9.872l-0.618,6.764
				C74.522,42.569,77.351,45.453,82.476,45.783z M80.081,36.764c-0.005-4.543,0.504-7.587,1.154-10.023
				c0.465-1.746,1.234-2.719,2.986-2.578c1.794,0.146,2.74,1.198,2.766,3.767c0.026,3.005-0.645,7.926-1.122,10.762
				c-0.281,1.663-1.534,3.064-3.849,2.405C80.271,40.6,80.083,38.451,80.081,36.764z"/>
		</g>
		<path fill="#EFECEF" d="M20.278,58.914c0,0,30.14-7.69,72.156-7.373l-0.52,10.657c0,0-45.502-1.604-71.839-0.269L20.278,58.914z"
			/>
	</g>
</g>
<g>
	<rect x="371.938" y="20.25" fill="#EFECEF" width="44.686" height="4.687"/>
	<rect x="371.938" y="35.293" fill="#EFECEF" width="44.686" height="4.687"/>
	<rect x="371.938" y="50.064" fill="#EFECEF" width="44.686" height="4.687"/>
</g>
</svg>
